999
dxfrw 0.6.3
  0
SECTION
  2
HEADER
  9
$ACADVER
  1
AC1021
  9
$DWGCODEPAGE
  3
ANSI_1250
  9
$INSBASE
 10
0
 20
0
 30
0
  9
$EXTMIN
 10
0.141125
 20
0.141107
 30
0
  9
$EXTMAX
 10
220.141038
 20
220.14104
 30
0
  9
$LIMMIN
 10
0
 20
0
  9
$LIMMAX
 10
420
 20
297
  9
$ORTHOMODE
 70
    0
  9
$REGENMODE
 70
    1
  9
$FILLMODE
 70
    1
  9
$QTEXTMODE
 70
    0
  9
$MIRRTEXT
 70
    0
  9
$LTSCALE
 40
1
  9
$ATTMODE
 70
    0
  9
$TEXTSIZE
 40
2.5
  9
$TRACEWID
 40
15.68
  9
$TEXTSTYLE
  7
STANDARD
  9
$CLAYER
  8
0
  9
$CELTYPE
  6
BYLAYER
  9
$CECOLOR
 62
  256
  9
$CELTSCALE
 40
1
  9
$DISPSILH
 70
    0
  9
$DIMSCALE
 40
2.5
  9
$DIMASZ
 40
2.5
  9
$DIMEXO
 40
0.625
  9
$DIMDLI
 40
3.75
  9
$DIMRND
 40
0
  9
$DIMDLE
 40
0
  9
$DIMEXE
 40
1.25
  9
$DIMTP
 40
0
  9
$DIMTM
 40
0
  9
$DIMTXT
 40
2.5
  9
$DIMCEN
 40
2.5
  9
$DIMTSZ
 40
0
  9
$DIMTOL
 70
    0
  9
$DIMLIM
 70
    0
  9
$DIMTIH
 70
    0
  9
$DIMTOH
 70
    0
  9
$DIMSE1
 70
    0
  9
$DIMSE2
 70
    0
  9
$DIMTAD
 70
    1
  9
$DIMZIN
 70
    8
  9
$DIMBLK
  1

  9
$DIMASO
 70
    1
  9
$DIMSHO
 70
    1
  9
$DIMPOST
  1

  9
$DIMAPOST
  1

  9
$DIMALT
 70
    0
  9
$DIMALTD
 70
    3
  9
$DIMALTF
 40
0.03937
  9
$DIMLFAC
 40
1
  9
$DIMTOFL
 70
    1
  9
$DIMTVP
 40
0
  9
$DIMTIX
 70
    0
  9
$DIMSOXD
 70
    0
  9
$DIMSAH
 70
    0
  9
$DIMBLK1
  1

  9
$DIMBLK2
  1

  9
$DIMSTYLE
  2
Standard
  9
$DIMCLRD
 70
    0
  9
$DIMCLRE
 70
    0
  9
$DIMCLRT
 70
    0
  9
$DIMTFAC
 40
1
  9
$DIMGAP
 40
0.625
  9
$DIMJUST
 70
    0
  9
$DIMSD1
 70
    0
  9
$DIMSD2
 70
    0
  9
$DIMTOLJ
 70
    0
  9
$DIMTZIN
 70
    8
  9
$DIMALTZ
 70
    0
  9
$DIMALTTZ
 70
    0
  9
$DIMUPT
 70
    0
  9
$DIMDEC
 70
    2
  9
$DIMTDEC
 70
    2
  9
$DIMALTU
 70
    2
  9
$DIMALTTD
 70
    3
  9
$DIMTXSTY
  7
STANDARD
  9
$DIMAUNIT
 70
    0
  9
$DIMADEC
 70
    0
  9
$DIMALTRND
 40
0
  9
$DIMAZIN
 70
    0
  9
$DIMDSEP
 70
   44
  9
$DIMATFIT
 70
    3
  9
$DIMFRAC
 70
    0
  9
$DIMLDRBLK
  1
STANDARD
  9
$DIMLUNIT
 70
    2
  9
$DIMLWD
 70
   -2
  9
$DIMLWE
 70
   -2
  9
$DIMTMOVE
 70
    0
  9
$DIMFXL
 40
1
  9
$DIMFXLON
 70
    0
  9
$DIMJOGANG
 40
0.7854
  9
$DIMTFILL
 70
    0
  9
$DIMTFILLCLR
 70
    0
  9
$DIMARCSYM
 70
    0
  9
$DIMLTYPE
  6

  9
$DIMLTEX1
  6

  9
$DIMLTEX2
  6

  9
$LUNITS
 70
    2
  9
$LUPREC
 70
    4
  9
$SKETCHINC
 40
1
  9
$FILLETRAD
 40
0
  9
$AUNITS
 70
    0
  9
$AUPREC
 70
    2
  9
$MENU
  1
.
  9
$ELEVATION
 40
0
  9
$PELEVATION
 40
0
  9
$THICKNESS
 40
0
  9
$LIMCHECK
 70
    0
  9
$CHAMFERA
 40
0
  9
$CHAMFERB
 40
0
  9
$CHAMFERC
 40
0
  9
$CHAMFERD
 40
0
  9
$SKPOLY
 70
    0
  9
$USRTIMER
 70
    1
  9
$ANGBASE
 50
0
  9
$ANGDIR
 70
    0
  9
$PDMODE
 70
   34
  9
$PDSIZE
 40
0
  9
$PLINEWID
 40
0
  9
$SPLFRAME
 70
    0
  9
$SPLINETYPE
 70
    2
  9
$SPLINESEGS
 70
    8
  9
$HANDSEED
  5
20000
  9
$SURFTAB1
 70
    6
  9
$SURFTAB2
 70
    6
  9
$SURFTYPE
 70
    6
  9
$SURFU
 70
    6
  9
$SURFV
 70
    6
  9
$UCSBASE
  2

  9
$UCSNAME
  2

  9
$UCSORG
 10
0
 20
0
 30
0
  9
$UCSXDIR
 10
1
 20
0
 30
0
  9
$UCSYDIR
 10
0
 20
1
 30
0
  9
$UCSORTHOREF
  2

  9
$UCSORTHOVIEW
 70
    0
  9
$UCSORGTOP
 10
0
 20
0
 30
0
  9
$UCSORGBOTTOM
 10
0
 20
0
 30
0
  9
$UCSORGLEFT
 10
0
 20
0
 30
0
  9
$UCSORGRIGHT
 10
0
 20
0
 30
0
  9
$UCSORGFRONT
 10
0
 20
0
 30
0
  9
$UCSORGBACK
 10
0
 20
0
 30
0
  9
$PUCSBASE
  2

  9
$PUCSNAME
  2

  9
$PUCSORG
 10
0
 20
0
 30
0
  9
$PUCSXDIR
 10
1
 20
0
 30
0
  9
$PUCSYDIR
 10
0
 20
1
 30
0
  9
$PUCSORTHOREF
  2

  9
$PUCSORTHOVIEW
 70
    0
  9
$PUCSORGTOP
 10
0
 20
0
 30
0
  9
$PUCSORGBOTTOM
 10
0
 20
0
 30
0
  9
$PUCSORGLEFT
 10
0
 20
0
 30
0
  9
$PUCSORGRIGHT
 10
0
 20
0
 30
0
  9
$PUCSORGFRONT
 10
0
 20
0
 30
0
  9
$PUCSORGBACK
 10
0
 20
0
 30
0
  9
$USERI1
 70
    0
  9
$USERI2
 70
    0
  9
$USERI3
 70
    0
  9
$USERI4
 70
    0
  9
$USERI5
 70
    0
  9
$USERR1
 40
0
  9
$USERR2
 40
0
  9
$USERR3
 40
0
  9
$USERR4
 40
0
  9
$USERR5
 40
0
  9
$WORLDVIEW
 70
    1
  9
$SHADEDGE
 70
    3
  9
$SHADEDIF
 70
   70
  9
$TILEMODE
 70
    1
  9
$MAXACTVP
 70
   64
  9
$PINSBASE
 10
0
 20
0
 30
0
  9
$PLIMCHECK
 70
    0
  9
$PEXTMIN
 10
0
 20
0
 30
0
  9
$PEXTMAX
 10
0
 20
0
 30
0
  9
$GRIDMODE
 70
    1
  9
$SNAPSTYLE
 70
    0
  9
$PLIMMIN
 10
0
 20
0
  9
$PLIMMAX
 10
420
 20
297
  9
$UNITMODE
 70
    0
  9
$VISRETAIN
 70
    1
  9
$PLINEGEN
 70
    0
  9
$PSLTSCALE
 70
    1
  9
$TREEDEPTH
 70
 3020
  9
$CMLSTYLE
  2
Standard
  9
$CMLJUST
 70
    0
  9
$CMLSCALE
 40
20
  9
$PROXYGRAPHICS
 70
    1
  9
$MEASUREMENT
 70
    1
  9
$CELWEIGHT
370
   -1
  9
$ENDCAPS
280
    0
  9
$JOINSTYLE
280
    0
  9
$LWDISPLAY
290
    0
  9
$INSUNITS
 70
    4
  9
$HYPERLINKBASE
  1

  9
$STYLESHEET
  1

  9
$XEDIT
290
    1
  9
$CEPSNTYPE
380
    0
  9
$PSTYLEMODE
290
    1
  9
$EXTNAMES
290
    1
  9
$PSVPSCALE
 40
1
  9
$OLESTARTUP
290
    0
  9
$SORTENTS
280
  127
  9
$INDEXCTL
280
    0
  9
$HIDETEXT
280
    1
  9
$XCLIPFRAME
290
    0
  9
$HALOGAP
280
    0
  9
$OBSCOLOR
 70
  257
  9
$OBSLTYPE
280
    0
  9
$INTERSECTIONDISPLAY
280
    0
  9
$INTERSECTIONCOLOR
 70
  257
  9
$DIMASSOC
280
    1
  9
$PROJECTNAME
  1

  9
$CAMERADISPLAY
290
    0
  9
$LENSLENGTH
 40
50
  9
$CAMERAHEIGHT
 40
0
  9
$STEPSPERSEC
 40
2
  9
$STEPSIZE
 40
50
  9
$3DDWFPREC
 40
2
  9
$PSOLWIDTH
 40
5
  9
$PSOLHEIGHT
 40
80
  9
$LOFTANG1
 40
1.570796326794897
  9
$LOFTANG2
 40
1.570796326794897
  9
$LOFTMAG1
 40
0
  9
$LOFTMAG2
 40
0
  9
$LOFTPARAM
 70
    7
  9
$LOFTNORMALS
280
    1
  9
$LATITUDE
 40
1
  9
$LONGITUDE
 40
1
  9
$NORTHDIRECTION
 40
0
  9
$TIMEZONE
 70
-8000
  9
$LIGHTGLYPHDISPLAY
280
    1
  9
$TILEMODELIGHTSYNCH
280
    1
  9
$SOLIDHIST
280
    1
  9
$SHOWHIST
280
    1
  9
$DWFFRAME
280
    2
  9
$DGNFRAME
280
    0
  9
$REALWORLDSCALE
290
    1
  9
$INTERFERECOLOR
 62
    1
  9
$CSHADOW
280
    0
  9
$SHADOWPLANELOCATION
 40
0
  0
ENDSEC
  0
SECTION
  2
CLASSES
  0
ENDSEC
  0
SECTION
  2
TABLES
  0
TABLE
  2
VPORT
  5
8
330
0
100
AcDbSymbolTable
 70
    1
  0
VPORT
  5
31
330
2
100
AcDbSymbolTableRecord
100
AcDbViewportTableRecord
  2
*ACTIVE
 70
    0
 10
0
 20
0
 11
1
 21
1
 12
153.1020408175364
 22
130.6861439322894
 13
0
 23
0
 14
10
 24
10
 15
10
 25
10
 16
0
 26
0
 36
1
 17
0
 27
0
 37
0
 40
272.8000000021557
 41
1.679914070891515
 42
50
 43
0
 44
0
 50
0
 51
0
 71
    0
 72
  100
 73
    1
 74
    3
 75
    0
 76
    1
 77
    0
 78
    0
281
    0
 65
    1
110
0
120
0
130
0
111
1
121
0
131
0
112
0
122
1
132
0
 79
    0
146
0
348
10020
 60
    7
 61
    5
292
1
282
    1
141
0
142
0
 63
  250
421
3358443
  0
ENDTAB
  0
TABLE
  2
LTYPE
  5
5
330
0
100
AcDbSymbolTable
 70
    4
  0
LTYPE
  5
14
330
5
100
AcDbSymbolTableRecord
100
AcDbLinetypeTableRecord
  2
ByBlock
 70
    0
  3

 72
   65
 73
    0
 40
0
  0
LTYPE
  5
15
330
5
100
AcDbSymbolTableRecord
100
AcDbLinetypeTableRecord
  2
ByLayer
 70
    0
  3

 72
   65
 73
    0
 40
0
  0
LTYPE
  5
16
330
5
100
AcDbSymbolTableRecord
100
AcDbLinetypeTableRecord
  2
Continuous
 70
    0
  3
Solid line
 72
   65
 73
    0
 40
0
  0
LTYPE
  5
32
330
5
100
AcDbSymbolTableRecord
100
AcDbLinetypeTableRecord
  2
DOT
 70
    0
  3
Dot . . . . . . . . . . . . . . . . . . . . . .
 72
   65
 73
    2
 40
6.35
 49
0
 74
    0
 49
-6.35
 74
    0
  0
LTYPE
  5
33
330
5
100
AcDbSymbolTableRecord
100
AcDbLinetypeTableRecord
  2
DOTTINY
 70
    0
  3
Dot (.15x) .....................................
 72
   65
 73
    2
 40
0.9525
 49
0
 74
    0
 49
-0.9525
 74
    0
  0
LTYPE
  5
34
330
5
100
AcDbSymbolTableRecord
100
AcDbLinetypeTableRecord
  2
DOT2
 70
    0
  3
Dot (.5x) .....................................
 72
   65
 73
    2
 40
3.175
 49
0
 74
    0
 49
-3.175
 74
    0
  0
LTYPE
  5
35
330
5
100
AcDbSymbolTableRecord
100
AcDbLinetypeTableRecord
  2
DOTX2
 70
    0
  3
Dot (2x) .  .  .  .  .  .  .  .  .  .  .  .  .
 72
   65
 73
    2
 40
12.7
 49
0
 74
    0
 49
-12.7
 74
    0
  0
LTYPE
  5
36
330
5
100
AcDbSymbolTableRecord
100
AcDbLinetypeTableRecord
  2
DASHED
 70
    0
  3
Dashed _ _ _ _ _ _ _ _ _ _ _ _ _ _ _ _ _
 72
   65
 73
    2
 40
19.05
 49
12.7
 74
    0
 49
-6.35
 74
    0
  0
LTYPE
  5
37
330
5
100
AcDbSymbolTableRecord
100
AcDbLinetypeTableRecord
  2
DASHEDTINY
 70
    0
  3
Dashed (.15x) _ _ _ _ _ _ _ _ _ _ _ _ _ _ _ _ _
 72
   65
 73
    2
 40
2.8575
 49
1.905
 74
    0
 49
-0.9525
 74
    0
  0
LTYPE
  5
38
330
5
100
AcDbSymbolTableRecord
100
AcDbLinetypeTableRecord
  2
DASHED2
 70
    0
  3
Dashed (.5x) _ _ _ _ _ _ _ _ _ _ _ _ _ _ _ _ _
 72
   65
 73
    2
 40
9.524999999999999
 49
6.35
 74
    0
 49
-3.175
 74
    0
  0
LTYPE
  5
39
330
5
100
AcDbSymbolTableRecord
100
AcDbLinetypeTableRecord
  2
DASHEDX2
 70
    0
  3
Dashed (2x) ____  ____  ____  ____  ____  ___
 72
   65
 73
    2
 40
38.09999999999999
 49
25.4
 74
    0
 49
-12.7
 74
    0
  0
LTYPE
  5
3A
330
5
100
AcDbSymbolTableRecord
100
AcDbLinetypeTableRecord
  2
DASHDOT
 70
    0
  3
Dash dot __ . __ . __ . __ . __ . __ . __ . __
 72
   65
 73
    4
 40
25.4
 49
12.7
 74
    0
 49
-6.35
 74
    0
 49
0
 74
    0
 49
-6.35
 74
    0
  0
LTYPE
  5
3B
330
5
100
AcDbSymbolTableRecord
100
AcDbLinetypeTableRecord
  2
DASHDOTTINY
 70
    0
  3
Dash dot (.15x) _._._._._._._._._._._._._._._.
 72
   65
 73
    4
 40
3.81
 49
1.905
 74
    0
 49
-0.9525
 74
    0
 49
0
 74
    0
 49
-0.9525
 74
    0
  0
LTYPE
  5
3C
330
5
100
AcDbSymbolTableRecord
100
AcDbLinetypeTableRecord
  2
DASHDOT2
 70
    0
  3
Dash dot (.5x) _._._._._._._._._._._._._._._.
 72
   65
 73
    4
 40
12.7
 49
6.35
 74
    0
 49
-3.175
 74
    0
 49
0
 74
    0
 49
-3.175
 74
    0
  0
LTYPE
  5
3D
330
5
100
AcDbSymbolTableRecord
100
AcDbLinetypeTableRecord
  2
DASHDOTX2
 70
    0
  3
Dash dot (2x) ____  .  ____  .  ____  .  ___
 72
   65
 73
    4
 40
50.8
 49
25.4
 74
    0
 49
-12.7
 74
    0
 49
0
 74
    0
 49
-12.7
 74
    0
  0
LTYPE
  5
3E
330
5
100
AcDbSymbolTableRecord
100
AcDbLinetypeTableRecord
  2
DIVIDE
 70
    0
  3
Divide ____ . . ____ . . ____ . . ____ . . ____
 72
   65
 73
    6
 40
31.75
 49
12.7
 74
    0
 49
-6.35
 74
    0
 49
0
 74
    0
 49
-6.35
 74
    0
 49
0
 74
    0
 49
-6.35
 74
    0
  0
LTYPE
  5
3F
330
5
100
AcDbSymbolTableRecord
100
AcDbLinetypeTableRecord
  2
DIVIDETINY
 70
    0
  3
Divide (.15x) __..__..__..__..__..__..__..__.._
 72
   65
 73
    6
 40
4.7625
 49
1.905
 74
    0
 49
-0.9525
 74
    0
 49
0
 74
    0
 49
-0.9525
 74
    0
 49
0
 74
    0
 49
-0.9525
 74
    0
  0
LTYPE
  5
40
330
5
100
AcDbSymbolTableRecord
100
AcDbLinetypeTableRecord
  2
DIVIDE2
 70
    0
  3
Divide (.5x) __..__..__..__..__..__..__..__.._
 72
   65
 73
    6
 40
15.875
 49
6.35
 74
    0
 49
-3.175
 74
    0
 49
0
 74
    0
 49
-3.175
 74
    0
 49
0
 74
    0
 49
-3.175
 74
    0
  0
LTYPE
  5
41
330
5
100
AcDbSymbolTableRecord
100
AcDbLinetypeTableRecord
  2
DIVIDEX2
 70
    0
  3
Divide (2x) ________  .  .  ________  .  .  _
 72
   65
 73
    6
 40
63.5
 49
25.4
 74
    0
 49
-12.7
 74
    0
 49
0
 74
    0
 49
-12.7
 74
    0
 49
0
 74
    0
 49
-12.7
 74
    0
  0
LTYPE
  5
42
330
5
100
AcDbSymbolTableRecord
100
AcDbLinetypeTableRecord
  2
BORDER
 70
    0
  3
Border __ __ . __ __ . __ __ . __ __ . __ __ .
 72
   65
 73
    6
 40
44.45
 49
12.7
 74
    0
 49
-6.35
 74
    0
 49
12.7
 74
    0
 49
-6.35
 74
    0
 49
0
 74
    0
 49
-6.35
 74
    0
  0
LTYPE
  5
43
330
5
100
AcDbSymbolTableRecord
100
AcDbLinetypeTableRecord
  2
BORDERTINY
 70
    0
  3
Border (.15x) __.__.__.__.__.__.__.__.__.__.__.
 72
   65
 73
    6
 40
6.6675
 49
1.905
 74
    0
 49
-0.9525
 74
    0
 49
1.905
 74
    0
 49
-0.9525
 74
    0
 49
0
 74
    0
 49
-0.9525
 74
    0
  0
LTYPE
  5
44
330
5
100
AcDbSymbolTableRecord
100
AcDbLinetypeTableRecord
  2
BORDER2
 70
    0
  3
Border (.5x) __.__.__.__.__.__.__.__.__.__.__.
 72
   65
 73
    6
 40
22.225
 49
6.35
 74
    0
 49
-3.175
 74
    0
 49
6.35
 74
    0
 49
-3.175
 74
    0
 49
0
 74
    0
 49
-3.175
 74
    0
  0
LTYPE
  5
45
330
5
100
AcDbSymbolTableRecord
100
AcDbLinetypeTableRecord
  2
BORDERX2
 70
    0
  3
Border (2x) ____  ____  .  ____  ____  .  ___
 72
   65
 73
    6
 40
88.89999999999999
 49
25.4
 74
    0
 49
-12.7
 74
    0
 49
25.4
 74
    0
 49
-12.7
 74
    0
 49
0
 74
    0
 49
-12.7
 74
    0
  0
LTYPE
  5
46
330
5
100
AcDbSymbolTableRecord
100
AcDbLinetypeTableRecord
  2
CENTER
 70
    0
  3
Center ____ _ ____ _ ____ _ ____ _ ____ _ ____
 72
   65
 73
    4
 40
50.8
 49
31.75
 74
    0
 49
-6.35
 74
    0
 49
6.35
 74
    0
 49
-6.35
 74
    0
  0
LTYPE
  5
47
330
5
100
AcDbSymbolTableRecord
100
AcDbLinetypeTableRecord
  2
CENTERTINY
 70
    0
  3
Center (.15x) ___ _ ___ _ ___ _ ___ _ ___ _ ___
 72
   65
 73
    4
 40
7.62
 49
4.7625
 74
    0
 49
-0.9525
 74
    0
 49
0.9525
 74
    0
 49
-0.9525
 74
    0
  0
LTYPE
  5
48
330
5
100
AcDbSymbolTableRecord
100
AcDbLinetypeTableRecord
  2
CENTER2
 70
    0
  3
Center (.5x) ___ _ ___ _ ___ _ ___ _ ___ _ ___
 72
   65
 73
    4
 40
28.575
 49
19.05
 74
    0
 49
-3.175
 74
    0
 49
3.175
 74
    0
 49
-3.175
 74
    0
  0
LTYPE
  5
49
330
5
100
AcDbSymbolTableRecord
100
AcDbLinetypeTableRecord
  2
CENTERX2
 70
    0
  3
Center (2x) ________  __  ________  __  _____
 72
   65
 73
    4
 40
101.6
 49
63.5
 74
    0
 49
-12.7
 74
    0
 49
12.7
 74
    0
 49
-12.7
 74
    0
  0
ENDTAB
  0
TABLE
  2
LAYER
  5
2
330
0
100
AcDbSymbolTable
 70
    1
  0
LAYER
  5
10
330
2
100
AcDbSymbolTableRecord
100
AcDbLayerTableRecord
  2
0
 70
    0
 62
    7
  6
CONTINUOUS
370
   -3
390
F
  0
LAYER
  5
4A
330
2
100
AcDbSymbolTableRecord
100
AcDbLayerTableRecord
  2
Prusa_i3
 70
    0
 62
    7
  6
CONTINUOUS
370
   -3
390
F
  0
LAYER
  5
4B
330
2
100
AcDbSymbolTableRecord
100
AcDbLayerTableRecord
  2
Rebel_II
 70
    0
 62
    7
  6
CONTINUOUS
370
   -3
390
F
  0
ENDTAB
  0
TABLE
  2
STYLE
  5
3
330
0
100
AcDbSymbolTable
 70
    3
  0
STYLE
  5
4C
330
2
100
AcDbSymbolTableRecord
100
AcDbTextStyleTableRecord
  2
Standard
 70
    0
 40
0
 41
1
 50
0
 71
    0
 42
1
  3
txt
  4

  0
ENDTAB
  0
TABLE
  2
VIEW
  5
6
330
0
100
AcDbSymbolTable
 70
    0
  0
ENDTAB
  0
TABLE
  2
UCS
  5
7
330
0
100
AcDbSymbolTable
 70
    0
  0
ENDTAB
  0
TABLE
  2
APPID
  5
9
330
0
100
AcDbSymbolTable
 70
    1
  0
APPID
  5
12
330
9
100
AcDbSymbolTableRecord
100
AcDbRegAppTableRecord
  2
ACAD
 70
    0
  0
APPID
  5
4D
330
9
100
AcDbSymbolTableRecord
100
AcDbRegAppTableRecord
  2
LibreCad
 70
    0
  0
ENDTAB
  0
TABLE
  2
DIMSTYLE
  5
A
330
0
100
AcDbSymbolTable
 70
    1
100
AcDbDimStyleTable
 71
    1
  0
DIMSTYLE
105
4E
330
A
100
AcDbSymbolTableRecord
100
AcDbDimStyleTableRecord
  2
Standard
 70
    0
 40
2.5
 41
2.5
 42
0.625
 43
0.38
 44
1.25
 45
0
 46
0
 47
0
 48
0
 49
1
140
2.5
141
0.09
142
0
143
25.4
144
1
145
0
146
1
147
0.625
148
0
 71
    0
 72
    0
 73
    0
 74
    1
 75
    0
 76
    0
 77
    0
 78
    8
 79
    0
170
    0
171
    2
172
    0
173
    0
174
    0
175
    0
176
    0
177
    0
178
    0
179
    0
271
    2
272
    4
273
    2
274
    2
275
    0
276
    0
277
    2
278
   44
279
    0
280
    0
281
    0
282
    0
283
    1
284
    0
285
    0
286
    0
288
    0
289
    3
340
STANDARD
341

371
   -2
372
   -2
  0
ENDTAB
  0
TABLE
  2
BLOCK_RECORD
  5
1
330
0
100
AcDbSymbolTable
 70
    2
  0
BLOCK_RECORD
  5
1F
330
1
100
AcDbSymbolTableRecord
100
AcDbBlockTableRecord
  2
*Model_Space
 70
    0
280
    1
281
    0
  0
BLOCK_RECORD
  5
1E
330
1
100
AcDbSymbolTableRecord
100
AcDbBlockTableRecord
  2
*Paper_Space
 70
    0
280
    1
281
    0
  0
ENDTAB
  0
ENDSEC
  0
SECTION
  2
BLOCKS
  0
BLOCK
  5
20
330
1F
100
AcDbEntity
  8
0
100
AcDbBlockBegin
  2
*Model_Space
 70
    0
 10
0
 20
0
 30
0
  3
*Model_Space
  1

  0
ENDBLK
  5
21
330
1F
100
AcDbEntity
  8
0
100
AcDbBlockEnd
  0
BLOCK
  5
1C
330
1B
100
AcDbEntity
  8
0
100
AcDbBlockBegin
  2
*Paper_Space
 70
    0
 10
0
 20
0
 30
0
  3
*Paper_Space
  1

  0
ENDBLK
  5
1D
330
1F
100
AcDbEntity
  8
0
100
AcDbBlockEnd
  0
ENDSEC
  0
SECTION
  2
ENTITIES
  0
SPLINE
  5
4F
100
AcDbEntity
  8
Rebel_II
  6
ByLayer
 62
    7
370
   -1
100
AcDbSpline
210
0
220
0
230
0
 70
    8
 71
    3
 72
    8
 73
    4
 74
    0
 42
1e-007
 43
1e-007
 40
0
 40
0
 40
0
 40
0
 40
1
 40
1
 40
1
 40
1
 10
220.141038
 20
214.641237
 30
0
 10
220.141038
 20
217.666129
 30
0
 10
217.666231
 20
220.14104
 30
0
 10
214.641337
 20
220.14104
 30
0
  0
SPLINE
  5
50
100
AcDbEntity
  8
Rebel_II
  6
ByLayer
 62
    7
370
   -1
100
AcDbSpline
210
0
220
0
230
0
 70
    8
 71
    3
 72
    8
 73
    4
 74
    0
 42
1e-007
 43
1e-007
 40
0
 40
0
 40
0
 40
0
 40
1
 40
1
 40
1
 40
1
 10
5.640931
 20
220.14104
 30
0
 10
2.616038
 20
220.14104
 30
0
 10
0.141125
 20
217.666129
 30
0
 10
0.141125
 20
214.641237
 30
0
  0
SPLINE
  5
51
100
AcDbEntity
  8
Rebel_II
  6
ByLayer
 62
    7
370
   -1
100
AcDbSpline
210
0
220
0
230
0
 70
    8
 71
    3
 72
    8
 73
    4
 74
    0
 42
1e-007
 43
1e-007
 40
0
 40
0
 40
0
 40
0
 40
1
 40
1
 40
1
 40
1
 10
0.141125
 20
5.6408
 30
0
 10
0.141125
 20
2.615914
 30
0
 10
2.616038
 20
0.141107
 30
0
 10
5.640931
 20
0.141107
 30
0
  0
LWPOLYLINE
  5
52
100
AcDbEntity
  8
Rebel_II
  6
ByLayer
 62
    7
370
   -1
100
AcDbPolyline
 90
    2
 70
    0
 43
0
 10
220.141038
 20
5.6408
 10
220.141038
 20
214.641237
  0
SPLINE
  5
53
100
AcDbEntity
  8
Rebel_II
  6
ByLayer
 62
    7
370
   -1
100
AcDbSpline
210
0
220
0
230
0
 70
    8
 71
    3
 72
    8
 73
    4
 74
    0
 42
1e-007
 43
1e-007
 40
0
 40
0
 40
0
 40
0
 40
1
 40
1
 40
1
 40
1
 10
214.641337
 20
0.141107
 30
0
 10
217.666231
 20
0.141107
 30
0
 10
220.141038
 20
2.615914
 30
0
 10
220.141038
 20
5.6408
 30
0
  0
LWPOLYLINE
  5
54
100
AcDbEntity
  8
Rebel_II
  6
ByLayer
 62
    7
370
   -1
100
AcDbPolyline
 90
    2
 70
    0
 43
0
 10
214.641337
 20
220.14104
 10
5.640931
 20
220.14104
  0
LWPOLYLINE
  5
55
100
AcDbEntity
  8
Rebel_II
  6
ByLayer
 62
    7
370
   -1
100
AcDbPolyline
 90
    2
 70
    0
 43
0
 10
0.141125
 20
214.641237
 10
0.141125
 20
5.6408
  0
LWPOLYLINE
  5
56
100
AcDbEntity
  8
Rebel_II
  6
ByLayer
 62
    7
370
   -1
100
AcDbPolyline
 90
    2
 70
    0
 43
0
 10
5.640931
 20
0.141107
 10
214.641337
 20
0.141107
  0
LWPOLYLINE
  5
57
100
AcDbEntity
  8
Rebel_II
  6
ByLayer
 62
    7
370
   -1
100
AcDbPolyline
 90
    2
 70
    0
 43
0
 10
220.141038
 20
5.6408
 10
220.141038
 20
5.6408
  0
LWPOLYLINE
  5
58
100
AcDbEntity
  8
Prusa_i3
  6
ByLayer
 62
    7
370
   -1
100
AcDbPolyline
 90
   21
 70
    0
 43
0
 10
185.407018
 20
101.0953056926259
 10
185.296452
 20
101.7941496926259
 10
184.975382
 20
102.4242446926259
 10
184.474991
 20
102.9239276926259
 10
183.844898
 20
103.2449946926259
 10
183.146765
 20
103.3555666926259
 10
182.447921
 20
103.2449946926259
 10
181.817829
 20
102.9239276926259
 10
181.318149
 20
102.4242446926259
 10
180.997076
 20
101.7941496926259
 10
180.88651
 20
101.0953056926259
 10
180.997076
 20
100.3971696926259
 10
181.318149
 20
99.76707469262587
 10
181.817829
 20
99.26668369262586
 10
182.447921
 20
98.94561369262587
 10
183.146765
 20
98.83504169262586
 10
183.844898
 20
98.94561369262587
 10
184.474991
 20
99.26668369262586
 10
184.975382
 20
99.76707469262587
 10
185.296452
 20
100.3971696926259
 10
185.407018
 20
101.0953056926259
  0
LWPOLYLINE
  5
59
100
AcDbEntity
  8
Prusa_i3
  6
ByLayer
 62
    7
370
   -1
100
AcDbPolyline
 90
   21
 70
    0
 43
0
 10
209.516405
 20
101.0953056926259
 10
209.405839
 20
101.7941496926259
 10
209.084766
 20
102.4242446926259
 10
208.58438
 20
102.9239276926259
 10
207.954288
 20
103.2449946926259
 10
207.256152
 20
103.3555666926259
 10
206.557308
 20
103.2449946926259
 10
205.927213
 20
102.9239276926259
 10
205.427532
 20
102.4242446926259
 10
205.106462
 20
101.7941496926259
 10
204.995896
 20
101.0953056926259
 10
205.106462
 20
100.3971696926259
 10
205.427532
 20
99.76707469262587
 10
205.927213
 20
99.26668369262586
 10
206.557308
 20
98.94561369262587
 10
207.256152
 20
98.83504169262586
 10
207.954288
 20
98.94561369262587
 10
208.58438
 20
99.26668369262586
 10
209.084766
 20
99.76707469262587
 10
209.405839
 20
100.3971696926259
 10
209.516405
 20
101.0953056926259
  0
LWPOLYLINE
  5
5A
100
AcDbEntity
  8
Prusa_i3
  6
ByLayer
 62
    7
370
   -1
100
AcDbPolyline
 90
   21
 70
    0
 43
0
 10
209.516405
 20
119.1773936926259
 10
209.405839
 20
119.8755296926259
 10
209.084766
 20
120.5063326926259
 10
208.58438
 20
121.0060126926259
 10
207.954288
 20
121.3270856926259
 10
207.256152
 20
121.4376516926259
 10
206.557308
 20
121.3270856926259
 10
205.927213
 20
121.0060126926259
 10
205.427532
 20
120.5063326926259
 10
205.106462
 20
119.8755296926259
 10
204.995896
 20
119.1773936926259
 10
205.106462
 20
118.4792576926259
 10
205.427532
 20
117.8491626926259
 10
205.927213
 20
117.3487686926259
 10
206.557308
 20
117.0276986926259
 10
207.256152
 20
116.9171296926259
 10
207.954288
 20
117.0276986926259
 10
208.58438
 20
117.3487686926259
 10
209.084766
 20
117.8491626926259
 10
209.405839
 20
118.4792576926259
 10
209.516405
 20
119.1773936926259
  0
LWPOLYLINE
  5
5B
100
AcDbEntity
  8
Prusa_i3
  6
ByLayer
 62
    7
370
   -1
100
AcDbPolyline
 90
   21
 70
    0
 43
0
 10
185.407018
 20
119.1773936926259
 10
185.296452
 20
119.8755296926259
 10
184.975382
 20
120.5063326926259
 10
184.474991
 20
121.0060126926259
 10
183.844898
 20
121.3270856926259
 10
183.146765
 20
121.4376516926259
 10
182.447921
 20
121.3270856926259
 10
181.817829
 20
121.0060126926259
 10
181.318149
 20
120.5063326926259
 10
180.997076
 20
119.8755296926259
 10
180.88651
 20
119.1773936926259
 10
180.997076
 20
118.4792576926259
 10
181.318149
 20
117.8491626926259
 10
181.817829
 20
117.3487686926259
 10
182.447921
 20
117.0276986926259
 10
183.146765
 20
116.9171296926259
 10
183.844898
 20
117.0276986926259
 10
184.474991
 20
117.3487686926259
 10
184.975382
 20
117.8491626926259
 10
185.296452
 20
118.4792576926259
 10
185.407018
 20
119.1773936926259
  0
LWPOLYLINE
  5
5C
100
AcDbEntity
  8
Prusa_i3
  6
ByLayer
 62
    7
370
   -1
100
AcDbPolyline
 90
   37
 70
    0
 43
0
 10
180.133092
 20
111.7438326926259
 10
179.517881
 20
111.6212156926259
 10
178.99623
 20
111.2732126926259
 10
178.648225
 20
110.7515586926259
 10
178.525608
 20
110.1363476926259
 10
178.648225
 20
109.5211376926259
 10
178.99623
 20
109.0001946926259
 10
179.517881
 20
108.6514786926259
 10
180.133092
 20
108.5288636926259
 10
181.55771
 20
108.5288636926259
 10
181.899335
 20
108.2517326926259
 10
182.28774
 20
108.0454826926259
 10
182.708748
 20
107.9193206926259
 10
183.146765
 20
107.8760896926259
 10
183.584783
 20
107.9193206926259
 10
184.005788
 20
108.0454826926259
 10
184.394193
 20
108.2517326926259
 10
184.735818
 20
108.5288636926259
 10
185.156117
 20
108.5288636926259
 10
185.770616
 20
108.6514786926259
 10
186.292268
 20
109.0001946926259
 10
186.640981
 20
109.5211376926259
 10
186.76289
 20
110.1363476926259
 10
186.640981
 20
110.7515586926259
 10
186.292268
 20
111.2732126926259
 10
185.770616
 20
111.6212156926259
 10
185.156117
 20
111.7438326926259
 10
184.735818
 20
111.7438326926259
 10
184.394193
 20
112.0209606926259
 10
184.005788
 20
112.2272116926259
 10
183.584783
 20
112.3540816926259
 10
183.146765
 20
112.3966096926259
 10
182.708748
 20
112.3540816926259
 10
182.28774
 20
112.2272116926259
 10
181.899335
 20
112.0209606926259
 10
181.55771
 20
111.7438326926259
 10
180.133092
 20
111.7438326926259
  0
LWPOLYLINE
  5
5D
100
AcDbEntity
  8
Prusa_i3
  6
ByLayer
 62
    7
370
   -1
100
AcDbPolyline
 90
   37
 70
    0
 43
0
 10
193.694621
 20
97.93136569262586
 10
196.708294
 20
97.93136569262586
 10
197.002432
 20
97.96042669262586
 10
197.284521
 20
98.04618269262586
 10
197.545348
 20
98.18510369262586
 10
197.77357
 20
98.37221969262586
 10
197.960683
 20
98.60115269262586
 10
198.10031
 20
98.86126869262587
 10
198.186072
 20
99.14406669262587
 10
198.215132
 20
99.43820669262587
 10
198.215132
 20
120.8352006926259
 10
198.186072
 20
121.1286266926259
 10
198.10031
 20
121.4114306926259
 10
197.960683
 20
121.6722546926259
 10
197.77357
 20
121.9004796926259
 10
197.545348
 20
122.0875926926259
 10
197.284521
 20
122.2272196926259
 10
197.002432
 20
122.3129786926259
 10
196.708294
 20
122.3420416926259
 10
193.694621
 20
122.3420416926259
 10
193.400483
 20
122.3129786926259
 10
193.117685
 20
122.2272196926259
 10
192.857569
 20
122.0875926926259
 10
192.629345
 20
121.9004796926259
 10
192.441523
 20
121.6722546926259
 10
192.302605
 20
121.4114306926259
 10
192.216843
 20
121.1286266926259
 10
192.187782
 20
120.8352006926259
 10
192.187782
 20
99.43820669262587
 10
192.216843
 20
99.14406669262587
 10
192.302605
 20
98.86126869262587
 10
192.441523
 20
98.60115269262586
 10
192.629345
 20
98.37221969262586
 10
192.857569
 20
98.18510369262586
 10
193.117685
 20
98.04618269262586
 10
193.400483
 20
97.96042669262586
 10
193.694621
 20
97.93136569262586
  0
LWPOLYLINE
  5
5E
100
AcDbEntity
  8
Prusa_i3
  6
ByLayer
 62
    7
370
   -1
100
AcDbPolyline
 90
   21
 70
    0
 43
0
 10
185.405903
 20
136.123885
 10
185.295334
 20
136.822021
 10
184.974264
 20
137.452116
 10
184.473876
 20
137.951796
 10
183.843781
 20
138.272869
 10
183.145648
 20
138.383435
 10
182.446803
 20
138.272869
 10
181.816711
 20
137.951796
 10
181.317031
 20
137.452116
 10
180.995961
 20
136.822021
 10
180.885392
 20
136.123885
 10
180.995961
 20
135.425038
 10
181.317031
 20
134.794943
 10
181.816711
 20
134.295262
 10
182.446803
 20
133.97419
 10
183.145648
 20
133.863623
 10
183.843781
 20
133.97419
 10
184.473876
 20
134.295262
 10
184.974264
 20
134.794943
 10
185.295334
 20
135.425038
 10
185.405903
 20
136.123885
  0
LWPOLYLINE
  5
5F
100
AcDbEntity
  8
Prusa_i3
  6
ByLayer
 62
    7
370
   -1
100
AcDbPolyline
 90
   21
 70
    0
 43
0
 10
209.51529
 20
136.123885
 10
209.404013
 20
136.822021
 10
209.082942
 20
137.452116
 10
208.583262
 20
137.951796
 10
207.95317
 20
138.272869
 10
207.255034
 20
138.383435
 10
206.55619
 20
138.272869
 10
205.926098
 20
137.951796
 10
205.426418
 20
137.452116
 10
205.105348
 20
136.822021
 10
204.994779
 20
136.123885
 10
205.105348
 20
135.425038
 10
205.426418
 20
134.794943
 10
205.926098
 20
134.295262
 10
206.55619
 20
133.97419
 10
207.255034
 20
133.863623
 10
207.95317
 20
133.97419
 10
208.583262
 20
134.295262
 10
209.082942
 20
134.794943
 10
209.404013
 20
135.425038
 10
209.51529
 20
136.123885
  0
LWPOLYLINE
  5
60
100
AcDbEntity
  8
Prusa_i3
  6
ByLayer
 62
    7
370
   -1
100
AcDbPolyline
 90
   21
 70
    0
 43
0
 10
209.51529
 20
154.205261
 10
209.404013
 20
154.904106
 10
209.082942
 20
155.534201
 10
208.583262
 20
156.033883
 10
207.95317
 20
156.354954
 10
207.255034
 20
156.465523
 10
206.55619
 20
156.354954
 10
205.926098
 20
156.033883
 10
205.426418
 20
155.534201
 10
205.105348
 20
154.904106
 10
204.994779
 20
154.205261
 10
205.105348
 20
153.507125
 10
205.426418
 20
152.87703
 10
205.926098
 20
152.376642
 10
206.55619
 20
152.055569
 10
207.255034
 20
151.945
 10
207.95317
 20
152.055569
 10
208.583262
 20
152.376642
 10
209.082942
 20
152.87703
 10
209.404013
 20
153.507125
 10
209.51529
 20
154.205261
  0
LWPOLYLINE
  5
61
100
AcDbEntity
  8
Prusa_i3
  6
ByLayer
 62
    7
370
   -1
100
AcDbPolyline
 90
   21
 70
    0
 43
0
 10
185.405903
 20
154.205261
 10
185.295334
 20
154.904106
 10
184.974264
 20
155.534201
 10
184.473876
 20
156.033883
 10
183.843781
 20
156.354954
 10
183.145648
 20
156.465523
 10
182.446803
 20
156.354954
 10
181.816711
 20
156.033883
 10
181.317031
 20
155.534201
 10
180.995961
 20
154.904106
 10
180.885392
 20
154.205261
 10
180.995961
 20
153.507125
 10
181.317031
 20
152.87703
 10
181.816711
 20
152.376642
 10
182.446803
 20
152.055569
 10
183.145648
 20
151.945
 10
183.843781
 20
152.055569
 10
184.473876
 20
152.376642
 10
184.974264
 20
152.87703
 10
185.295334
 20
153.507125
 10
185.405903
 20
154.205261
  0
LWPOLYLINE
  5
62
100
AcDbEntity
  8
Prusa_i3
  6
ByLayer
 62
    7
370
   -1
100
AcDbPolyline
 90
   37
 70
    0
 43
0
 10
180.131974
 20
146.771703
 10
179.516764
 20
146.649797
 10
178.995113
 20
146.30108
 10
178.64711
 20
145.779429
 10
178.524493
 20
145.164219
 10
178.64711
 20
144.549717
 10
178.995113
 20
144.028063
 10
179.516764
 20
143.679349
 10
180.131974
 20
143.55744
 10
181.556596
 20
143.55744
 10
181.897512
 20
143.279604
 10
182.286623
 20
143.074061
 10
182.70763
 20
142.947194
 10
183.145648
 20
142.903957
 10
183.583665
 20
142.947194
 10
184.004673
 20
143.074061
 10
184.393076
 20
143.279604
 10
184.734703
 20
143.55744
 10
185.154291
 20
143.55744
 10
185.769502
 20
143.679349
 10
186.29115
 20
144.028063
 10
186.639864
 20
144.549717
 10
186.761772
 20
145.164219
 10
186.639864
 20
145.779429
 10
186.29115
 20
146.30108
 10
185.769502
 20
146.649797
 10
185.154291
 20
146.771703
 10
184.734703
 20
146.771703
 10
184.393076
 20
147.049539
 10
184.004673
 20
147.255085
 10
183.583665
 20
147.381952
 10
183.145648
 20
147.42448
 10
182.70763
 20
147.381952
 10
182.286623
 20
147.255085
 10
181.897512
 20
147.049539
 10
181.556596
 20
146.771703
 10
180.131974
 20
146.771703
  0
LWPOLYLINE
  5
63
100
AcDbEntity
  8
Prusa_i3
  6
ByLayer
 62
    7
370
   -1
100
AcDbPolyline
 90
   37
 70
    0
 43
0
 10
193.693506
 20
132.959234
 10
196.707179
 20
132.959234
 10
197.000608
 20
132.988294
 10
197.283406
 20
133.074056
 10
197.54423
 20
133.212974
 10
197.772452
 20
133.400799
 10
197.959568
 20
133.62902
 10
198.099195
 20
133.889139
 10
198.184957
 20
134.171937
 10
198.214014
 20
134.466075
 10
198.214014
 20
155.863068
 10
198.184957
 20
156.157209
 10
198.099195
 20
156.440007
 10
197.959568
 20
156.700125
 10
197.772452
 20
156.928347
 10
197.54423
 20
157.116172
 10
197.283406
 20
157.25509
 10
197.000608
 20
157.340852
 10
196.707179
 20
157.369909
 10
193.693506
 20
157.369909
 10
193.399365
 20
157.340852
 10
193.11657
 20
157.25509
 10
192.856452
 20
157.116172
 10
192.627521
 20
156.928347
 10
192.440405
 20
156.700125
 10
192.301487
 20
156.440007
 10
192.215728
 20
156.157209
 10
192.186668
 20
155.863068
 10
192.186668
 20
134.466075
 10
192.215728
 20
134.171937
 10
192.301487
 20
133.889139
 10
192.440405
 20
133.62902
 10
192.627521
 20
133.400799
 10
192.856452
 20
133.212974
 10
193.11657
 20
133.074056
 10
193.399365
 20
132.988294
 10
193.693506
 20
132.959234
  0
LWPOLYLINE
  5
64
100
AcDbEntity
  8
Prusa_i3
  6
ByLayer
 62
    7
370
   -1
100
AcDbPolyline
 90
   21
 70
    0
 43
0
 10
185.405903
 20
66.08201675451431
 10
185.295334
 20
66.7801527545143
 10
184.974264
 20
67.41024775451432
 10
184.473876
 20
67.91063675451431
 10
183.843781
 20
68.23170975451431
 10
183.145648
 20
68.34227875451431
 10
182.446803
 20
68.23170975451431
 10
181.816711
 20
67.91063675451431
 10
181.317031
 20
67.41024775451432
 10
180.995961
 20
66.7801527545143
 10
180.885392
 20
66.08201675451431
 10
180.995961
 20
65.38387875451431
 10
181.317031
 20
64.75378575451431
 10
181.816711
 20
64.25339475451432
 10
182.446803
 20
63.93232475451431
 10
183.145648
 20
63.82175575451431
 10
183.843781
 20
63.93232475451431
 10
184.473876
 20
64.25339475451432
 10
184.974264
 20
64.75378575451431
 10
185.295334
 20
65.38387875451431
 10
185.405903
 20
66.08201675451431
  0
LWPOLYLINE
  5
65
100
AcDbEntity
  8
Prusa_i3
  6
ByLayer
 62
    7
370
   -1
100
AcDbPolyline
 90
   21
 70
    0
 43
0
 10
209.51529
 20
66.08201675451431
 10
209.404013
 20
66.7801527545143
 10
209.082942
 20
67.41024775451432
 10
208.583262
 20
67.91063675451431
 10
207.95317
 20
68.23170975451431
 10
207.255034
 20
68.34227875451431
 10
206.55619
 20
68.23170975451431
 10
205.926098
 20
67.91063675451431
 10
205.426418
 20
67.41024775451432
 10
205.105348
 20
66.7801527545143
 10
204.994779
 20
66.08201675451431
 10
205.105348
 20
65.38387875451431
 10
205.426418
 20
64.75378575451431
 10
205.926098
 20
64.25339475451432
 10
206.55619
 20
63.93232475451431
 10
207.255034
 20
63.82175575451431
 10
207.95317
 20
63.93232475451431
 10
208.583262
 20
64.25339475451432
 10
209.082942
 20
64.75378575451431
 10
209.404013
 20
65.38387875451431
 10
209.51529
 20
66.08201675451431
  0
LWPOLYLINE
  5
66
100
AcDbEntity
  8
Prusa_i3
  6
ByLayer
 62
    7
370
   -1
100
AcDbPolyline
 90
   21
 70
    0
 43
0
 10
209.51529
 20
84.16410175451431
 10
209.404013
 20
84.86223775451431
 10
209.082942
 20
85.49233275451431
 10
208.583262
 20
85.99272475451431
 10
207.95317
 20
86.31379775451431
 10
207.255034
 20
86.42436375451432
 10
206.55619
 20
86.31379775451431
 10
205.926098
 20
85.99272475451431
 10
205.426418
 20
85.49233275451431
 10
205.105348
 20
84.86223775451431
 10
204.994779
 20
84.16410175451431
 10
205.105348
 20
83.46525775451431
 10
205.426418
 20
82.83516275451431
 10
205.926098
 20
82.33548275451432
 10
206.55619
 20
82.01440975451432
 10
207.255034
 20
81.90384075451431
 10
207.95317
 20
82.01440975451432
 10
208.583262
 20
82.33548275451432
 10
209.082942
 20
82.83516275451431
 10
209.404013
 20
83.46525775451431
 10
209.51529
 20
84.16410175451431
  0
LWPOLYLINE
  5
67
100
AcDbEntity
  8
Prusa_i3
  6
ByLayer
 62
    7
370
   -1
100
AcDbPolyline
 90
   21
 70
    0
 43
0
 10
185.405903
 20
84.16410175451431
 10
185.295334
 20
84.86223775451431
 10
184.974264
 20
85.49233275451431
 10
184.473876
 20
85.99272475451431
 10
183.843781
 20
86.31379775451431
 10
183.145648
 20
86.42436375451432
 10
182.446803
 20
86.31379775451431
 10
181.816711
 20
85.99272475451431
 10
181.317031
 20
85.49233275451431
 10
180.995961
 20
84.86223775451431
 10
180.885392
 20
84.16410175451431
 10
180.995961
 20
83.46525775451431
 10
181.317031
 20
82.83516275451431
 10
181.816711
 20
82.33548275451432
 10
182.446803
 20
82.01440975451432
 10
183.145648
 20
81.90384075451431
 10
183.843781
 20
82.01440975451432
 10
184.473876
 20
82.33548275451432
 10
184.974264
 20
82.83516275451431
 10
185.295334
 20
83.46525775451431
 10
185.405903
 20
84.16410175451431
  0
LWPOLYLINE
  5
68
100
AcDbEntity
  8
Prusa_i3
  6
ByLayer
 62
    7
370
   -1
100
AcDbPolyline
 90
   37
 70
    0
 43
0
 10
180.131974
 20
76.73054675451431
 10
179.516764
 20
76.60792975451432
 10
178.995113
 20
76.25921575451432
 10
178.64711
 20
75.73826975451431
 10
178.524493
 20
75.12305975451432
 10
178.64711
 20
74.50784875451431
 10
178.995113
 20
73.98619475451432
 10
179.516764
 20
73.63819275451431
 10
180.131974
 20
73.51557575451432
 10
181.556596
 20
73.51557575451432
 10
181.897512
 20
73.2384447545143
 10
182.286623
 20
73.03219375451431
 10
182.70763
 20
72.90532675451431
 10
183.145648
 20
72.86279875451432
 10
183.583665
 20
72.90532675451431
 10
184.004673
 20
73.03219375451431
 10
184.393076
 20
73.2384447545143
 10
184.734703
 20
73.51557575451432
 10
185.154291
 20
73.51557575451432
 10
185.769502
 20
73.63819275451431
 10
186.29115
 20
73.98619475451432
 10
186.639864
 20
74.50784875451431
 10
186.761772
 20
75.12305975451432
 10
186.639864
 20
75.73826975451431
 10
186.29115
 20
76.25921575451432
 10
185.769502
 20
76.60792975451432
 10
185.154291
 20
76.73054675451431
 10
184.734703
 20
76.73054675451431
 10
184.393076
 20
77.00767475451431
 10
184.004673
 20
77.21392575451431
 10
183.583665
 20
77.34008475451431
 10
183.145648
 20
77.38332075451432
 10
182.70763
 20
77.34008475451431
 10
182.286623
 20
77.21392575451431
 10
181.897512
 20
77.00767475451431
 10
181.556596
 20
76.73054675451431
 10
180.131974
 20
76.73054675451431
  0
LWPOLYLINE
  5
69
100
AcDbEntity
  8
Prusa_i3
  6
ByLayer
 62
    7
370
   -1
100
AcDbPolyline
 90
   37
 70
    0
 43
0
 10
193.693506
 20
62.91736575451431
 10
196.707179
 20
62.91736575451431
 10
197.000608
 20
62.94642675451431
 10
197.283406
 20
63.03218875451431
 10
197.54423
 20
63.17181475451431
 10
197.772452
 20
63.35893075451431
 10
197.959568
 20
63.58715275451431
 10
198.099195
 20
63.84797975451431
 10
198.184957
 20
64.13077775451431
 10
198.214014
 20
64.42420675451432
 10
198.214014
 20
85.82120075451431
 10
198.184957
 20
86.1153417545143
 10
198.099195
 20
86.39813975451432
 10
197.959568
 20
86.65825775451431
 10
197.772452
 20
86.88718775451431
 10
197.54423
 20
87.07430475451432
 10
197.283406
 20
87.21322275451431
 10
197.000608
 20
87.29898475451431
 10
196.707179
 20
87.32804175451432
 10
193.693506
 20
87.32804175451432
 10
193.399365
 20
87.29898475451431
 10
193.11657
 20
87.21322275451431
 10
192.856452
 20
87.07430475451432
 10
192.627521
 20
86.88718775451431
 10
192.440405
 20
86.65825775451431
 10
192.301487
 20
86.39813975451432
 10
192.215728
 20
86.1153417545143
 10
192.186668
 20
85.82120075451431
 10
192.186668
 20
64.42420675451432
 10
192.215728
 20
64.13077775451431
 10
192.301487
 20
63.84797975451431
 10
192.440405
 20
63.58715275451431
 10
192.627521
 20
63.35893075451431
 10
192.856452
 20
63.17181475451431
 10
193.11657
 20
63.03218875451431
 10
193.399365
 20
62.94642675451431
 10
193.693506
 20
62.91736575451431
  0
LWPOLYLINE
  5
6A
100
AcDbEntity
  8
Prusa_i3
  6
ByLayer
 62
    7
370
   -1
100
AcDbPolyline
 90
   21
 70
    0
 43
0
 10
15.28355577758867
 20
66.08328891205856
 10
15.17298877758867
 20
66.78213291205857
 10
14.85191777758867
 20
67.41222791205857
 10
14.35152877758867
 20
67.91191091205857
 10
13.72143577758867
 20
68.23298091205857
 10
13.02330077758867
 20
68.34354991205856
 10
12.32445777758867
 20
68.23298091205857
 10
11.69436477758867
 20
67.91191091205857
 10
11.19468477758867
 20
67.41222791205857
 10
10.87361377758867
 20
66.78213291205857
 10
10.76304577758867
 20
66.08328891205856
 10
10.87361377758867
 20
65.38515291205857
 10
11.19468477758867
 20
64.75505791205856
 10
11.69436477758867
 20
64.25466691205857
 10
12.32445777758867
 20
63.93359591205857
 10
13.02330077758867
 20
63.82302491205857
 10
13.72143577758867
 20
63.93359591205857
 10
14.35152877758867
 20
64.25466691205857
 10
14.85191777758867
 20
64.75505791205856
 10
15.17298877758867
 20
65.38515291205857
 10
15.28355577758867
 20
66.08328891205856
  0
LWPOLYLINE
  5
6B
100
AcDbEntity
  8
Prusa_i3
  6
ByLayer
 62
    7
370
   -1
100
AcDbPolyline
 90
   21
 70
    0
 43
0
 10
39.39294377758868
 20
66.08328891205856
 10
39.28237777758868
 20
66.78213291205857
 10
38.96130477758868
 20
67.41222791205857
 10
38.46091577758868
 20
67.91191091205857
 10
37.83082377758868
 20
68.23298091205857
 10
37.13268777758867
 20
68.34354991205856
 10
36.43384677758868
 20
68.23298091205857
 10
35.80375177758867
 20
67.91191091205857
 10
35.30407177758867
 20
67.41222791205857
 10
34.98300177758868
 20
66.78213291205857
 10
34.87243277758867
 20
66.08328891205856
 10
34.98300177758868
 20
65.38515291205857
 10
35.30407177758867
 20
64.75505791205856
 10
35.80375177758867
 20
64.25466691205857
 10
36.43384677758868
 20
63.93359591205857
 10
37.13268777758867
 20
63.82302491205857
 10
37.83082377758868
 20
63.93359591205857
 10
38.46091577758868
 20
64.25466691205857
 10
38.96130477758868
 20
64.75505791205856
 10
39.28237777758868
 20
65.38515291205857
 10
39.39294377758868
 20
66.08328891205856
  0
LWPOLYLINE
  5
6C
100
AcDbEntity
  8
Prusa_i3
  6
ByLayer
 62
    7
370
   -1
100
AcDbPolyline
 90
   21
 70
    0
 43
0
 10
39.39294377758868
 20
84.16537691205856
 10
39.28237777758868
 20
84.86351191205857
 10
38.96130477758868
 20
85.49431591205857
 10
38.46091577758868
 20
85.99399591205857
 10
37.83082377758868
 20
86.31506891205856
 10
37.13268777758867
 20
86.42563791205856
 10
36.43384677758868
 20
86.31506891205856
 10
35.80375177758867
 20
85.99399591205857
 10
35.30407177758867
 20
85.49431591205857
 10
34.98300177758868
 20
84.86351191205857
 10
34.87243277758867
 20
84.16537691205856
 10
34.98300177758868
 20
83.46724091205857
 10
35.30407177758867
 20
82.83714591205857
 10
35.80375177758867
 20
82.33675191205857
 10
36.43384677758868
 20
82.01568091205857
 10
37.13268777758867
 20
81.90511491205856
 10
37.83082377758868
 20
82.01568091205857
 10
38.46091577758868
 20
82.33675191205857
 10
38.96130477758868
 20
82.83714591205857
 10
39.28237777758868
 20
83.46724091205857
 10
39.39294377758868
 20
84.16537691205856
  0
LWPOLYLINE
  5
6D
100
AcDbEntity
  8
Prusa_i3
  6
ByLayer
 62
    7
370
   -1
100
AcDbPolyline
 90
   21
 70
    0
 43
0
 10
15.28355577758867
 20
84.16537691205856
 10
15.17298877758867
 20
84.86351191205857
 10
14.85191777758867
 20
85.49431591205857
 10
14.35152877758867
 20
85.99399591205857
 10
13.72143577758867
 20
86.31506891205856
 10
13.02330077758867
 20
86.42563791205856
 10
12.32445777758867
 20
86.31506891205856
 10
11.69436477758867
 20
85.99399591205857
 10
11.19468477758867
 20
85.49431591205857
 10
10.87361377758867
 20
84.86351191205857
 10
10.76304577758867
 20
84.16537691205856
 10
10.87361377758867
 20
83.46724091205857
 10
11.19468477758867
 20
82.83714591205857
 10
11.69436477758867
 20
82.33675191205857
 10
12.32445777758867
 20
82.01568091205857
 10
13.02330077758867
 20
81.90511491205856
 10
13.72143577758867
 20
82.01568091205857
 10
14.35152877758867
 20
82.33675191205857
 10
14.85191777758867
 20
82.83714591205857
 10
15.17298877758867
 20
83.46724091205857
 10
15.28355577758867
 20
84.16537691205856
  0
LWPOLYLINE
  5
6E
100
AcDbEntity
  8
Prusa_i3
  6
ByLayer
 62
    7
370
   -1
100
AcDbPolyline
 90
   37
 70
    0
 43
0
 10
40.14636177758868
 20
73.51684691205857
 10
40.76086077758868
 20
73.63946391205857
 10
41.28251477758867
 20
73.98817791205857
 10
41.63122877758867
 20
74.50912091205856
 10
41.75313377758867
 20
75.12433391205857
 10
41.63122877758867
 20
75.73954191205857
 10
41.28251477758867
 20
76.26119591205857
 10
40.76086077758868
 20
76.60920091205857
 10
40.14636177758868
 20
76.73181791205857
 10
38.72174277758867
 20
76.73181791205857
 10
38.38011577758867
 20
77.00894291205857
 10
37.99171277758867
 20
77.21519691205857
 10
37.56999677758868
 20
77.34206391205856
 10
37.13268777758867
 20
77.38459291205857
 10
36.69467077758868
 20
77.34206391205856
 10
36.27366277758868
 20
77.21519691205857
 10
35.88455177758868
 20
77.00894291205857
 10
35.54363577758868
 20
76.73181791205857
 10
35.12333677758868
 20
76.73181791205857
 10
34.50812877758868
 20
76.60920091205857
 10
33.98718277758867
 20
76.26119591205857
 10
33.63847177758868
 20
75.73954191205857
 10
33.51585477758867
 20
75.12433391205857
 10
33.63847177758868
 20
74.50912091205856
 10
33.98718277758867
 20
73.98817791205857
 10
34.50812877758868
 20
73.63946391205857
 10
35.12333677758868
 20
73.51684691205857
 10
35.54363577758868
 20
73.51684691205857
 10
35.88455177758868
 20
73.23971891205856
 10
36.27366277758868
 20
73.03346791205857
 10
36.69467077758868
 20
72.90730591205856
 10
37.13268777758867
 20
72.86407291205857
 10
37.56999677758868
 20
72.90730591205856
 10
37.99171277758867
 20
73.03346791205857
 10
38.38011577758867
 20
73.23971891205856
 10
38.72174277758867
 20
73.51684691205857
 10
40.14636177758868
 20
73.51684691205857
  0
LWPOLYLINE
  5
6F
100
AcDbEntity
  8
Prusa_i3
  6
ByLayer
 62
    7
370
   -1
100
AcDbPolyline
 90
   37
 70
    0
 43
0
 10
23.57115777758867
 20
62.91934891205857
 10
26.58483177758868
 20
62.91934891205857
 10
26.87896877758867
 20
62.94840891205857
 10
27.16105777758867
 20
63.03416491205856
 10
27.42188377758868
 20
63.17308891205857
 10
27.65010677758868
 20
63.36020291205857
 10
27.83722077758867
 20
63.58913591205857
 10
27.97684777758867
 20
63.84925091205857
 10
28.06260877758868
 20
64.13205191205857
 10
28.09166777758868
 20
64.42618991205856
 10
28.09166777758868
 20
85.82318391205857
 10
28.06260877758868
 20
86.11661291205857
 10
27.97684777758867
 20
86.39941391205856
 10
27.83722077758867
 20
86.66023791205856
 10
27.65010677758868
 20
86.88846291205857
 10
27.42188377758868
 20
87.07557591205857
 10
27.16105777758867
 20
87.21520291205857
 10
26.87896877758867
 20
87.30096391205856
 10
26.58483177758868
 20
87.33002491205856
 10
23.57115777758867
 20
87.33002491205856
 10
23.27701977758867
 20
87.30096391205856
 10
22.99422277758867
 20
87.21520291205857
 10
22.73410477758867
 20
87.07557591205857
 10
22.50588277758867
 20
86.88846291205857
 10
22.31805977758867
 20
86.66023791205856
 10
22.17914177758868
 20
86.39941391205856
 10
22.09338077758867
 20
86.11661291205857
 10
22.06432077758867
 20
85.82318391205857
 10
22.06432077758867
 20
64.42618991205856
 10
22.09338077758867
 20
64.13205191205857
 10
22.17914177758868
 20
63.84925091205857
 10
22.31805977758867
 20
63.58913591205857
 10
22.50588277758867
 20
63.36020291205857
 10
22.73410477758867
 20
63.17308891205857
 10
22.99422277758867
 20
63.03416491205856
 10
23.27701977758867
 20
62.94840891205857
 10
23.57115777758867
 20
62.91934891205857
  0
LWPOLYLINE
  5
70
100
AcDbEntity
  8
Prusa_i3
  6
ByLayer
 62
    7
370
   -1
100
AcDbPolyline
 90
   21
 70
    0
 43
0
 10
15.28293882268568
 20
136.1231686210136
 10
15.17237182268567
 20
136.8220126210136
 10
14.85130082268567
 20
137.4521076210136
 10
14.35091182268567
 20
137.9517906210136
 10
13.72081882268568
 20
138.2728606210136
 10
13.02268382268567
 20
138.3834296210136
 10
12.32384082268567
 20
138.2728606210136
 10
11.69374782268567
 20
137.9517906210136
 10
11.19406782268567
 20
137.4521076210136
 10
10.87299682268567
 20
136.8220126210136
 10
10.76242882268567
 20
136.1231686210136
 10
10.87299682268567
 20
135.4250326210136
 10
11.19406782268567
 20
134.7949376210136
 10
11.69374782268567
 20
134.2945456210136
 10
12.32384082268567
 20
133.9734756210136
 10
13.02268382268567
 20
133.8629066210136
 10
13.72081882268568
 20
133.9734756210136
 10
14.35091182268567
 20
134.2945456210136
 10
14.85130082268567
 20
134.7949376210136
 10
15.17237182268567
 20
135.4250326210136
 10
15.28293882268568
 20
136.1231686210136
  0
LWPOLYLINE
  5
71
100
AcDbEntity
  8
Prusa_i3
  6
ByLayer
 62
    7
370
   -1
100
AcDbPolyline
 90
   21
 70
    0
 43
0
 10
39.39232482268568
 20
136.1231686210136
 10
39.28175882268567
 20
136.8220126210136
 10
38.96068582268568
 20
137.4521076210136
 10
38.46029682268568
 20
137.9517906210136
 10
37.83020482268567
 20
138.2728606210136
 10
37.13207182268567
 20
138.3834296210136
 10
36.43322782268568
 20
138.2728606210136
 10
35.80313282268567
 20
137.9517906210136
 10
35.30345282268567
 20
137.4521076210136
 10
34.98238282268568
 20
136.8220126210136
 10
34.87181382268568
 20
136.1231686210136
 10
34.98238282268568
 20
135.4250326210136
 10
35.30345282268567
 20
134.7949376210136
 10
35.80313282268567
 20
134.2945456210136
 10
36.43322782268568
 20
133.9734756210136
 10
37.13207182268567
 20
133.8629066210136
 10
37.83020482268567
 20
133.9734756210136
 10
38.46029682268568
 20
134.2945456210136
 10
38.96068582268568
 20
134.7949376210136
 10
39.28175882268567
 20
135.4250326210136
 10
39.39232482268568
 20
136.1231686210136
  0
LWPOLYLINE
  5
72
100
AcDbEntity
  8
Prusa_i3
  6
ByLayer
 62
    7
370
   -1
100
AcDbPolyline
 90
   21
 70
    0
 43
0
 10
39.39232482268568
 20
154.2052556210136
 10
39.28175882268567
 20
154.9033916210136
 10
38.96068582268568
 20
155.5341956210136
 10
38.46029682268568
 20
156.0338756210136
 10
37.83020482268567
 20
156.3549486210136
 10
37.13207182268567
 20
156.4655176210136
 10
36.43322782268568
 20
156.3549486210136
 10
35.80313282268567
 20
156.0338756210136
 10
35.30345282268567
 20
155.5341956210136
 10
34.98238282268568
 20
154.9033916210136
 10
34.87181382268568
 20
154.2052556210136
 10
34.98238282268568
 20
153.5071196210136
 10
35.30345282268567
 20
152.8770246210136
 10
35.80313282268567
 20
152.3766336210136
 10
36.43322782268568
 20
152.0555606210136
 10
37.13207182268567
 20
151.9449946210136
 10
37.83020482268567
 20
152.0555606210136
 10
38.46029682268568
 20
152.3766336210136
 10
38.96068582268568
 20
152.8770246210136
 10
39.28175882268567
 20
153.5071196210136
 10
39.39232482268568
 20
154.2052556210136
  0
LWPOLYLINE
  5
73
100
AcDbEntity
  8
Prusa_i3
  6
ByLayer
 62
    7
370
   -1
100
AcDbPolyline
 90
   21
 70
    0
 43
0
 10
15.28293882268568
 20
154.2052556210136
 10
15.17237182268567
 20
154.9033916210136
 10
14.85130082268567
 20
155.5341956210136
 10
14.35091182268567
 20
156.0338756210136
 10
13.72081882268568
 20
156.3549486210136
 10
13.02268382268567
 20
156.4655176210136
 10
12.32384082268567
 20
156.3549486210136
 10
11.69374782268567
 20
156.0338756210136
 10
11.19406782268567
 20
155.5341956210136
 10
10.87299682268567
 20
154.9033916210136
 10
10.76242882268567
 20
154.2052556210136
 10
10.87299682268567
 20
153.5071196210136
 10
11.19406782268567
 20
152.8770246210136
 10
11.69374782268567
 20
152.3766336210136
 10
12.32384082268567
 20
152.0555606210136
 10
13.02268382268567
 20
151.9449946210136
 10
13.72081882268568
 20
152.0555606210136
 10
14.35091182268567
 20
152.3766336210136
 10
14.85130082268567
 20
152.8770246210136
 10
15.17237182268567
 20
153.5071196210136
 10
15.28293882268568
 20
154.2052556210136
  0
LWPOLYLINE
  5
74
100
AcDbEntity
  8
Prusa_i3
  6
ByLayer
 62
    7
370
   -1
100
AcDbPolyline
 90
   37
 70
    0
 43
0
 10
40.14574282268568
 20
143.5567266210136
 10
40.76024182268567
 20
143.6793436210136
 10
41.28189582268567
 20
144.0280576210136
 10
41.63060982268567
 20
144.5489996210136
 10
41.75251582268568
 20
145.1642136210136
 10
41.63060982268567
 20
145.7794216210136
 10
41.28189582268567
 20
146.3010756210136
 10
40.76024182268567
 20
146.6490806210136
 10
40.14574282268568
 20
146.7716976210136
 10
38.72112382268567
 20
146.7716976210136
 10
38.37949682268568
 20
147.0488256210136
 10
37.99109482268568
 20
147.2550766210136
 10
37.56937782268568
 20
147.3819466210136
 10
37.13207182268567
 20
147.4244716210136
 10
36.69405182268568
 20
147.3819466210136
 10
36.27304682268567
 20
147.2550766210136
 10
35.88393282268568
 20
147.0488256210136
 10
35.54301682268567
 20
146.7716976210136
 10
35.12271782268567
 20
146.7716976210136
 10
34.50750982268568
 20
146.6490806210136
 10
33.98656682268567
 20
146.3010756210136
 10
33.63785582268568
 20
145.7794216210136
 10
33.51523582268568
 20
145.1642136210136
 10
33.63785582268568
 20
144.5489996210136
 10
33.98656682268567
 20
144.0280576210136
 10
34.50750982268568
 20
143.6793436210136
 10
35.12271782268567
 20
143.5567266210136
 10
35.54301682268567
 20
143.5567266210136
 10
35.88393282268568
 20
143.2795986210136
 10
36.27304682268567
 20
143.0733476210136
 10
36.69405182268568
 20
142.9471856210136
 10
37.13207182268567
 20
142.9039526210136
 10
37.56937782268568
 20
142.9471856210136
 10
37.99109482268568
 20
143.0733476210136
 10
38.37949682268568
 20
143.2795986210136
 10
38.72112382268567
 20
143.5567266210136
 10
40.14574282268568
 20
143.5567266210136
  0
LWPOLYLINE
  5
75
100
AcDbEntity
  8
Prusa_i3
  6
ByLayer
 62
    7
370
   -1
100
AcDbPolyline
 90
   37
 70
    0
 43
0
 10
23.57054082268568
 20
132.9592286210136
 10
26.58421482268567
 20
132.9592286210136
 10
26.87835182268568
 20
132.9882886210136
 10
27.16044082268568
 20
133.0740476210136
 10
27.42126682268567
 20
133.2129686210136
 10
27.64948982268567
 20
133.4000816210136
 10
27.83660382268567
 20
133.6290156210136
 10
27.97623082268568
 20
133.8891306210136
 10
28.06199182268567
 20
134.1719316210136
 10
28.09105082268567
 20
134.4660696210136
 10
28.09105082268567
 20
155.8630636210136
 10
28.06199182268567
 20
156.1564926210136
 10
27.97623082268568
 20
156.4392936210136
 10
27.83660382268567
 20
156.7001176210136
 10
27.64948982268567
 20
156.9283416210136
 10
27.42126682268567
 20
157.1154556210136
 10
27.16044082268568
 20
157.2550816210136
 10
26.87835182268568
 20
157.3408436210136
 10
26.58421482268567
 20
157.3699036210136
 10
23.57054082268568
 20
157.3699036210136
 10
23.27640282268568
 20
157.3408436210136
 10
22.99360582268568
 20
157.2550816210136
 10
22.73348782268567
 20
157.1154556210136
 10
22.50526582268568
 20
156.9283416210136
 10
22.31744282268567
 20
156.7001176210136
 10
22.17852482268567
 20
156.4392936210136
 10
22.09276382268568
 20
156.1564926210136
 10
22.06370382268567
 20
155.8630636210136
 10
22.06370382268567
 20
134.4660696210136
 10
22.09276382268568
 20
134.1719316210136
 10
22.17852482268567
 20
133.8891306210136
 10
22.31744282268567
 20
133.6290156210136
 10
22.50526582268568
 20
133.4000816210136
 10
22.73348782268567
 20
133.2129686210136
 10
22.99360582268568
 20
133.0740476210136
 10
23.27640282268568
 20
132.9882886210136
 10
23.57054082268568
 20
132.9592286210136
  0
SPLINE
  5
76
100
AcDbEntity
  8
Rebel_II
  6
ByLayer
 62
    3
370
   -1
100
AcDbSpline
210
0
220
0
230
0
 70
    8
 71
    3
 72
    8
 73
    4
 74
    0
 42
1e-007
 43
1e-007
 40
0
 40
0
 40
0
 40
0
 40
1
 40
1
 40
1
 40
1
 10
110.778626
 20
16.144146
 30
0
 10
110.423308
 20
15.887041
 30
0
 10
109.930619
 20
15.867743
 30
0
 10
109.549303
 20
16.130853
 30
0
  0
SPLINE
  5
77
100
AcDbEntity
  8
Rebel_II
  6
ByLayer
 62
    3
370
   -1
100
AcDbSpline
210
0
220
0
230
0
 70
    8
 71
    3
 72
    8
 73
    4
 74
    0
 42
1e-007
 43
1e-007
 40
0
 40
0
 40
0
 40
0
 40
1
 40
1
 40
1
 40
1
 10
66.889509
 20
45.566236
 30
0
 10
66.568021
 20
45.750561
 30
0
 10
66.351523
 20
46.097059
 30
0
 10
66.351523
 20
46.494532
 30
0
  0
SPLINE
  5
78
100
AcDbEntity
  8
Rebel_II
  6
ByLayer
 62
    3
370
   -1
100
AcDbSpline
210
0
220
0
230
0
 70
    8
 71
    3
 72
    8
 73
    4
 74
    0
 42
1e-007
 43
1e-007
 40
0
 40
0
 40
0
 40
0
 40
1
 40
1
 40
1
 40
1
 10
66.351523
 20
46.494532
 30
0
 10
66.351523
 20
47.084659
 30
0
 10
66.83002999999999
 20
47.563133
 30
0
 10
67.420016
 20
47.563133
 30
0
  0
SPLINE
  5
79
100
AcDbEntity
  8
Rebel_II
  6
ByLayer
 62
    3
370
   -1
100
AcDbSpline
210
0
220
0
230
0
 70
    8
 71
    3
 72
    8
 73
    4
 74
    0
 42
1e-007
 43
1e-007
 40
0
 40
0
 40
0
 40
0
 40
1
 40
1
 40
1
 40
1
 10
152.888617
 20
47.559535
 30
0
 10
153.2264
 20
47.559252
 30
0
 10
153.558929
 20
47.398564
 30
0
 10
153.765233
 20
47.099865
 30
0
  0
SPLINE
  5
7A
100
AcDbEntity
  8
Rebel_II
  6
ByLayer
 62
    3
370
   -1
100
AcDbSpline
210
0
220
0
230
0
 70
    8
 71
    3
 72
    8
 73
    4
 74
    0
 42
1e-007
 43
1e-007
 40
0
 40
0
 40
0
 40
0
 40
1
 40
1
 40
1
 40
1
 10
153.765233
 20
47.099865
 30
0
 10
154.099314
 20
46.615535
 30
0
 10
153.978029
 20
45.952034
 30
0
 10
153.493806
 20
45.617846
 30
0
  0
LWPOLYLINE
  5
7B
100
AcDbEntity
  8
Rebel_II
  6
ByLayer
 62
    3
370
   -1
100
AcDbPolyline
 90
    2
 70
    0
 43
0
 10
133.235014
 20
31.638956
 10
110.778626
 20
16.144146
  0
LWPOLYLINE
  5
7C
100
AcDbEntity
  8
Rebel_II
  6
ByLayer
 62
    3
370
   -1
100
AcDbPolyline
 90
    3
 70
    0
 43
0
 10
109.549303
 20
16.130845
 10
87.073723
 20
31.638956
 10
66.889509
 20
45.566236
  0
LWPOLYLINE
  5
7D
100
AcDbEntity
  8
Rebel_II
  6
ByLayer
 62
    3
370
   -1
100
AcDbPolyline
 90
    3
 70
    0
 43
0
 10
67.420016
 20
47.563133
 10
152.888617
 20
47.563133
 10
152.888617
 20
47.559521
  0
LWPOLYLINE
  5
7E
100
AcDbEntity
  8
Rebel_II
  6
ByLayer
 62
    3
370
   -1
100
AcDbPolyline
 90
    3
 70
    0
 43
0
 10
153.493806
 20
45.617846
 10
133.235014
 20
31.638956
 10
133.235014
 20
31.638956
  0
SPLINE
  5
7F
100
AcDbEntity
  8
Rebel_II
  6
ByLayer
 62
    3
370
   -1
100
AcDbSpline
210
0
220
0
230
0
 70
    8
 71
    3
 72
    8
 73
    4
 74
    0
 42
1e-007
 43
1e-007
 40
0
 40
0
 40
0
 40
0
 40
1
 40
1
 40
1
 40
1
 10
110.901951
 20
146.015782
 30
0
 10
110.468529
 20
145.702482
 30
0
 10
109.867748
 20
145.678702
 30
0
 10
109.402646
 20
145.999809
 30
0
  0
SPLINE
  5
80
100
AcDbEntity
  8
Rebel_II
  6
ByLayer
 62
    3
370
   -1
100
AcDbSpline
210
0
220
0
230
0
 70
    8
 71
    3
 72
    8
 73
    4
 74
    0
 42
1e-007
 43
1e-007
 40
0
 40
0
 40
0
 40
0
 40
1
 40
1
 40
1
 40
1
 10
34.52539
 20
197.666612
 30
0
 10
34.186684
 20
197.900893
 30
0
 10
33.965001
 20
198.292016
 30
0
 10
33.965001
 20
198.734789
 30
0
  0
SPLINE
  5
81
100
AcDbEntity
  8
Rebel_II
  6
ByLayer
 62
    3
370
   -1
100
AcDbSpline
210
0
220
0
230
0
 70
    8
 71
    3
 72
    8
 73
    4
 74
    0
 42
1e-007
 43
1e-007
 40
0
 40
0
 40
0
 40
0
 40
1
 40
1
 40
1
 40
1
 10
33.965001
 20
198.734789
 30
0
 10
33.965001
 20
199.451704
 30
0
 10
34.546201
 20
200.032904
 30
0
 10
35.262907
 20
200.032904
 30
0
  0
SPLINE
  5
82
100
AcDbEntity
  8
Rebel_II
  6
ByLayer
 62
    3
370
   -1
100
AcDbSpline
210
0
220
0
230
0
 70
    8
 71
    3
 72
    8
 73
    4
 74
    0
 42
1e-007
 43
1e-007
 40
0
 40
0
 40
0
 40
0
 40
1
 40
1
 40
1
 40
1
 10
184.968106
 20
200.032904
 30
0
 10
185.39712
 20
200.048708
 30
0
 10
185.824791
 20
199.852211
 30
0
 10
186.086798
 20
199.473116
 30
0
  0
SPLINE
  5
83
100
AcDbEntity
  8
Rebel_II
  6
ByLayer
 62
    3
370
   -1
100
AcDbSpline
210
0
220
0
230
0
 70
    8
 71
    3
 72
    8
 73
    4
 74
    0
 42
1e-007
 43
1e-007
 40
0
 40
0
 40
0
 40
0
 40
1
 40
1
 40
1
 40
1
 10
186.086798
 20
199.473116
 30
0
 10
186.494293
 20
198.882603
 30
0
 10
186.346409
 20
198.073613
 30
0
 10
185.756002
 20
197.666011
 30
0
  0
LWPOLYLINE
  5
84
100
AcDbEntity
  8
Rebel_II
  6
ByLayer
 62
    3
370
   -1
100
AcDbPolyline
 90
    2
 70
    0
 43
0
 10
149.669054
 20
172.765406
 10
110.901951
 20
146.015782
  0
LWPOLYLINE
  5
85
100
AcDbEntity
  8
Rebel_II
  6
ByLayer
 62
    3
370
   -1
100
AcDbPolyline
 90
    4
 70
    0
 43
0
 10
109.402646
 20
145.999803
 10
70.612155
 20
172.765406
 10
34.525035
 20
197.665906
 10
34.525317
 20
197.666471
  0
LWPOLYLINE
  5
86
100
AcDbEntity
  8
Rebel_II
  6
ByLayer
 62
    3
370
   -1
100
AcDbPolyline
 90
    2
 70
    0
 43
0
 10
35.262907
 20
200.032904
 10
184.968106
 20
200.032904
  0
LWPOLYLINE
  5
87
100
AcDbEntity
  8
Rebel_II
  6
ByLayer
 62
    3
370
   -1
100
AcDbPolyline
 90
    3
 70
    0
 43
0
 10
185.756002
 20
197.666011
 10
149.669054
 20
172.765406
 10
149.669054
 20
172.765406
  0
LWPOLYLINE
  5
88
100
AcDbEntity
  8
Prusa_i3
  6
ByLayer
 62
    3
370
   -1
100
AcDbPolyline
 90
   37
 70
    0
 43
0
 10
210.269822
 20
108.5288636926259
 10
210.884322
 20
108.6514786926259
 10
211.405976
 20
109.0001946926259
 10
211.754692
 20
109.5211376926259
 10
211.876598
 20
110.1363476926259
 10
211.754692
 20
110.7515586926259
 10
211.405976
 20
111.2732126926259
 10
210.884322
 20
111.6212156926259
 10
210.269822
 20
111.7438326926259
 10
208.845207
 20
111.7438326926259
 10
208.50358
 20
112.0209606926259
 10
208.115177
 20
112.2272116926259
 10
207.693461
 20
112.3540816926259
 10
207.256152
 20
112.3966096926259
 10
206.818132
 20
112.3540816926259
 10
206.397127
 20
112.2272116926259
 10
206.008013
 20
112.0209606926259
 10
205.667097
 20
111.7438326926259
 10
205.246797
 20
111.7438326926259
 10
204.63159
 20
111.6212156926259
 10
204.110647
 20
111.2732126926259
 10
203.761936
 20
110.7515586926259
 10
203.639319
 20
110.1363476926259
 10
203.761936
 20
109.5211376926259
 10
204.110647
 20
109.0001946926259
 10
204.63159
 20
108.6514786926259
 10
205.246797
 20
108.5288636926259
 10
205.667097
 20
108.5288636926259
 10
206.008013
 20
108.2517326926259
 10
206.397127
 20
108.0454826926259
 10
206.818132
 20
107.9193206926259
 10
207.256152
 20
107.8760896926259
 10
207.693461
 20
107.9193206926259
 10
208.115177
 20
108.0454826926259
 10
208.50358
 20
108.2517326926259
 10
208.845207
 20
108.5288636926259
 10
210.269822
 20
108.5288636926259
  0
LWPOLYLINE
  5
89
100
AcDbEntity
  8
Prusa_i3
  6
ByLayer
 62
    3
370
   -1
100
AcDbPolyline
 90
   37
 70
    0
 43
0
 10
210.268708
 20
143.55744
 10
210.883207
 20
143.679349
 10
211.404861
 20
144.028063
 10
211.753572
 20
144.549717
 10
211.875481
 20
145.164219
 10
211.753572
 20
145.779429
 10
211.404861
 20
146.30108
 10
210.883207
 20
146.649797
 10
210.268708
 20
146.771703
 10
208.844089
 20
146.771703
 10
208.502462
 20
147.049539
 10
208.114059
 20
147.255085
 10
207.692343
 20
147.381952
 10
207.255034
 20
147.42448
 10
206.817017
 20
147.381952
 10
206.396009
 20
147.255085
 10
206.006898
 20
147.049539
 10
205.665271
 20
146.771703
 10
205.245683
 20
146.771703
 10
204.630475
 20
146.649797
 10
204.108824
 20
146.30108
 10
203.760818
 20
145.779429
 10
203.638201
 20
145.164219
 10
203.760818
 20
144.549717
 10
204.108824
 20
144.028063
 10
204.630475
 20
143.679349
 10
205.245683
 20
143.55744
 10
205.665271
 20
143.55744
 10
206.006898
 20
143.279604
 10
206.396009
 20
143.074061
 10
206.817017
 20
142.947194
 10
207.255034
 20
142.903957
 10
207.692343
 20
142.947194
 10
208.114059
 20
143.074061
 10
208.502462
 20
143.279604
 10
208.844089
 20
143.55744
 10
210.268708
 20
143.55744
  0
LWPOLYLINE
  5
8A
100
AcDbEntity
  8
Prusa_i3
  6
ByLayer
 62
    3
370
   -1
100
AcDbPolyline
 90
   37
 70
    0
 43
0
 10
210.268708
 20
73.51557575451432
 10
210.883207
 20
73.63819275451431
 10
211.404861
 20
73.98619475451432
 10
211.753572
 20
74.50784875451431
 10
211.875481
 20
75.12305975451432
 10
211.753572
 20
75.73826975451431
 10
211.404861
 20
76.25921575451432
 10
210.883207
 20
76.60792975451432
 10
210.268708
 20
76.73054675451431
 10
208.844089
 20
76.73054675451431
 10
208.502462
 20
77.00767475451431
 10
208.114059
 20
77.21392575451431
 10
207.692343
 20
77.34008475451431
 10
207.255034
 20
77.38332075451432
 10
206.817017
 20
77.34008475451431
 10
206.396009
 20
77.21392575451431
 10
206.006898
 20
77.00767475451431
 10
205.665271
 20
76.73054675451431
 10
205.245683
 20
76.73054675451431
 10
204.630475
 20
76.60792975451432
 10
204.108824
 20
76.25921575451432
 10
203.760818
 20
75.73826975451431
 10
203.638201
 20
75.12305975451432
 10
203.760818
 20
74.50784875451431
 10
204.108824
 20
73.98619475451432
 10
204.630475
 20
73.63819275451431
 10
205.245683
 20
73.51557575451432
 10
205.665271
 20
73.51557575451432
 10
206.006898
 20
73.2384447545143
 10
206.396009
 20
73.03219375451431
 10
206.817017
 20
72.90532675451431
 10
207.255034
 20
72.86279875451432
 10
207.692343
 20
72.90532675451431
 10
208.114059
 20
73.03219375451431
 10
208.502462
 20
73.2384447545143
 10
208.844089
 20
73.51557575451432
 10
210.268708
 20
73.51557575451432
  0
LWPOLYLINE
  5
8B
100
AcDbEntity
  8
Prusa_i3
  6
ByLayer
 62
    3
370
   -1
100
AcDbPolyline
 90
   37
 70
    0
 43
0
 10
10.00962777758867
 20
76.73181791205857
 10
9.394418777588674
 20
76.60920091205857
 10
8.872766777588675
 20
76.26119591205857
 10
8.524762777588673
 20
75.73954191205857
 10
8.402145777588673
 20
75.12433391205857
 10
8.524762777588673
 20
74.50912091205856
 10
8.872766777588675
 20
73.98817791205857
 10
9.394418777588674
 20
73.63946391205857
 10
10.00962777758867
 20
73.51684691205857
 10
11.43424777758867
 20
73.51684691205857
 10
11.77587277758867
 20
73.23971891205856
 10
12.16427677758867
 20
73.03346791205857
 10
12.58528377758867
 20
72.90730591205856
 10
13.02330077758867
 20
72.86407291205857
 10
13.46131877758867
 20
72.90730591205856
 10
13.88232577758867
 20
73.03346791205857
 10
14.27072977758867
 20
73.23971891205856
 10
14.61235477758867
 20
73.51684691205857
 10
15.03265277758867
 20
73.51684691205857
 10
15.64715277758867
 20
73.63946391205857
 10
16.16880477758867
 20
73.98817791205857
 10
16.51751777758867
 20
74.50912091205856
 10
16.63942577758867
 20
75.12433391205857
 10
16.51751777758867
 20
75.73954191205857
 10
16.16880477758867
 20
76.26119591205857
 10
15.64715277758867
 20
76.60920091205857
 10
15.03265277758867
 20
76.73181791205857
 10
14.61235477758867
 20
76.73181791205857
 10
14.27072977758867
 20
77.00894291205857
 10
13.88232577758867
 20
77.21519691205857
 10
13.46131877758867
 20
77.34206391205856
 10
13.02330077758867
 20
77.38459291205857
 10
12.58528377758867
 20
77.34206391205856
 10
12.16427677758867
 20
77.21519691205857
 10
11.77587277758867
 20
77.00894291205857
 10
11.43424777758867
 20
76.73181791205857
 10
10.00962777758867
 20
76.73181791205857
  0
LWPOLYLINE
  5
8C
100
AcDbEntity
  8
Prusa_i3
  6
ByLayer
 62
    3
370
   -1
100
AcDbPolyline
 90
   37
 70
    0
 43
0
 10
10.00901082268567
 20
146.7716976210136
 10
9.393801822685674
 20
146.6490806210136
 10
8.872149822685675
 20
146.3010756210136
 10
8.524145822685675
 20
145.7794216210136
 10
8.401528822685675
 20
145.1642136210136
 10
8.524145822685675
 20
144.5489996210136
 10
8.872149822685675
 20
144.0280576210136
 10
9.393801822685674
 20
143.6793436210136
 10
10.00901082268567
 20
143.5567266210136
 10
11.43363082268568
 20
143.5567266210136
 10
11.77525582268568
 20
143.2795986210136
 10
12.16365982268568
 20
143.0733476210136
 10
12.58466682268567
 20
142.9471856210136
 10
13.02268382268567
 20
142.9039526210136
 10
13.46070182268567
 20
142.9471856210136
 10
13.88170882268568
 20
143.0733476210136
 10
14.27011282268568
 20
143.2795986210136
 10
14.61173782268567
 20
143.5567266210136
 10
15.03203582268567
 20
143.5567266210136
 10
15.64653582268567
 20
143.6793436210136
 10
16.16818782268567
 20
144.0280576210136
 10
16.51690082268567
 20
144.5489996210136
 10
16.63880882268568
 20
145.1642136210136
 10
16.51690082268567
 20
145.7794216210136
 10
16.16818782268567
 20
146.3010756210136
 10
15.64653582268567
 20
146.6490806210136
 10
15.03203582268567
 20
146.7716976210136
 10
14.61173782268567
 20
146.7716976210136
 10
14.27011282268568
 20
147.0488256210136
 10
13.88170882268568
 20
147.2550766210136
 10
13.46070182268567
 20
147.3819466210136
 10
13.02268382268567
 20
147.4244716210136
 10
12.58466682268567
 20
147.3819466210136
 10
12.16365982268568
 20
147.2550766210136
 10
11.77525582268568
 20
147.0488256210136
 10
11.43363082268568
 20
146.7716976210136
 10
10.00901082268567
 20
146.7716976210136
  0
CIRCLE
  5
8D
100
AcDbEntity
  8
Rebel_II
  6
ByLayer
 62
    1
370
   -1
100
AcDbCircle
 10
114.1403463914676
 20
85.17431585986603
 40
1.6
  0
CIRCLE
  5
8E
100
AcDbEntity
  8
Rebel_II
  6
ByLayer
 62
    1
370
   -1
100
AcDbCircle
 10
131.1486848612238
 20
85.12819454929358
 40
1.6
  0
CIRCLE
  5
8F
100
AcDbEntity
  8
Rebel_II
  6
ByLayer
 62
    1
370
   -1
100
AcDbCircle
 10
167.7205747810599
 20
145.1706189849786
 40
1.6
  0
CIRCLE
  5
90
100
AcDbEntity
  8
Rebel_II
  6
ByLayer
 62
    1
370
   -1
100
AcDbCircle
 10
167.7456478826602
 20
110.0907105739757
 40
1.6
  0
CIRCLE
  5
91
100
AcDbEntity
  8
Rebel_II
  6
ByLayer
 62
    1
370
   -1
100
AcDbCircle
 10
167.7390496980302
 20
75.12693021248414
 40
1.6
  0
CIRCLE
  5
92
100
AcDbEntity
  8
Rebel_II
  6
ByLayer
 62
    1
370
   -1
100
AcDbCircle
 10
52.53804512707781
 20
75.12857975864235
 40
1.6
  0
CIRCLE
  5
93
100
AcDbEntity
  8
Rebel_II
  6
ByLayer
 62
    1
370
   -1
100
AcDbCircle
 10
52.52773546359165
 20
145.1703715530587
 40
1.6
  0
CIRCLE
  5
94
100
AcDbEntity
  8
Rebel_II
  6
ByLayer
 62
    1
370
   -1
100
AcDbCircle
 10
17.15592439546351
 20
102.9838729203739
 40
2.5
  0
CIRCLE
  5
95
100
AcDbEntity
  8
Rebel_II
  6
ByLayer
 62
    1
370
   -1
100
AcDbCircle
 10
5.138722894040244
 20
102.9838729203739
 40
2.5
  0
CIRCLE
  5
96
100
AcDbEntity
  8
Rebel_II
  6
ByLayer
 62
    1
370
   -1
100
AcDbCircle
 10
5.141944663879774
 20
114.9785220329207
 40
2.5
  0
CIRCLE
  5
97
100
AcDbEntity
  8
Rebel_II
  6
ByLayer
 62
    1
370
   -1
100
AcDbCircle
 10
17.15270262562401
 20
114.9785220329207
 40
2.5
  0
CIRCLE
  5
98
100
AcDbEntity
  8
Rebel_II
  6
ByLayer
 62
    1
370
   -1
100
AcDbCircle
 10
11.13443656539383
 20
125.0046697735187
 40
5
  0
CIRCLE
  5
99
100
AcDbEntity
  8
Prusa_i3
  6
ByLayer
 62
  256
370
   -1
100
AcDbCircle
 10
110.140196958719
 20
130.7347807393032
 40
1.7
  0
CIRCLE
  5
9A
100
AcDbEntity
  8
Prusa_i3
  6
ByLayer
 62
  256
370
   -1
100
AcDbCircle
 10
110.1400649950273
 20
89.55372894523211
 40
1.7
  0
CIRCLE
  5
9B
100
AcDbEntity
  8
Rebel_II
  6
ByLayer
 62
    3
370
   -1
100
AcDbCircle
 10
5.618766600129077
 20
214.6600808677753
 40
1.6
  0
CIRCLE
  5
9C
100
AcDbEntity
  8
Rebel_II
  6
ByLayer
 62
    3
370
   -1
100
AcDbCircle
 10
214.6125533191042
 20
214.5993569498415
 40
1.6
  0
CIRCLE
  5
9D
100
AcDbEntity
  8
Rebel_II
  6
ByLayer
 62
    3
370
   -1
100
AcDbCircle
 10
214.6162647979641
 20
5.690934244534573
 40
1.6
  0
CIRCLE
  5
9E
100
AcDbEntity
  8
Rebel_II
  6
ByLayer
 62
    3
370
   -1
100
AcDbCircle
 10
5.608456936642789
 20
5.649695590588693
 40
1.6
  0
ENDSEC
  0
SECTION
  2
OBJECTS
  0
DICTIONARY
  5
C
330
0
100
AcDbDictionary
281
    1
  3
ACAD_GROUP
350
D
  0
DICTIONARY
  5
D
330
C
100
AcDbDictionary
281
    1
  0
ENDSEC
  0
EOF
